# xmcd
#
# Track frame offsets:
#	150
#	21925
#	40960
#	60792
#	82522
#	107917
#	130145
#	156807
#	168260
#	185902
#	205980
#	225542
#	246887
#	266560
#
# Disc length: 4107 seconds
#
# Revision: 1
# Processed by: cddbd v1.5.1PL0 Copyright (c) Steve Scherf et al.
# Submitted via: CDex 1.50Beta5
#
DISCID=b110090e
DTITLE=さまざまなアーティスト - 夏物語
DYEAR=1900
DGENRE=Pop
TTITLE0=TRF/BOY MEETS GIRL
TTITLE1=プリンセス プリンセス/世界でいちばん熱い夏
TTITLE2=Every Little Thing/出逢った頃のように
TTITLE3=ICE BOX/冷たいキス
TTITLE4=安室奈美恵/You're my sunshine
TTITLE5=EXILE/Kiss you
TTITLE6=m-flo/been so long
TTITLE7=センチメンタル・バス/Sunny Day Sunday
TTITLE8=JITTERIN' JINN/夏祭り
TTITLE9=MAX/Ride on time
TTITLE10=BoA/VALENTI
TTITLE11=Puffy/アジアの純真 〜English version〜
TTITLE12=浜崎あゆみ/July 1st
TTITLE13=MONDO GROSSO/LIFE feat. bird
EXTD=
EXTT0=
EXTT1=
EXTT2=
EXTT3=
EXTT4=
EXTT5=
EXTT6=
EXTT7=
EXTT8=
EXTT9=
EXTT10=
EXTT11=
EXTT12=
EXTT13=
PLAYORDER=
